<svg xmlns="http://www.w3.org/2000/svg" viewBox="0 0 284.2 284.2"><defs><style>.cls-1{fill:#fff;}</style></defs><g id="Layer_2" data-name="Layer 2"><g id="Layer_1-2" data-name="Layer 1"><path class="cls-1" d="M181.21,147.45l81.06-81.2a142.36,142.36,0,0,0-81.06-60.8Z"/><path class="cls-1" d="M266.3,73,165.93,173.57H280.7A142.52,142.52,0,0,0,266.3,73Z"/><path class="cls-1" d="M136.22,181.21l80.43,81.88a142.43,142.43,0,0,0,62.1-81.88Z"/><path class="cls-1" d="M3.5,110.63A142.5,142.5,0,0,0,18.11,211.54l100.2-100.91Z"/><path class="cls-1" d="M147.61,103l-81-81.31A142.41,142.41,0,0,0,5.45,103Z"/><path class="cls-1" d="M110.63,166.06V280.7a142.6,142.6,0,0,0,99.2-13.65Z"/><path class="cls-1" d="M103,136.9,22.15,218.31A142.42,142.42,0,0,0,103,278.75Z"/><path class="cls-1" d="M173.57,118.23V3.5A142.51,142.51,0,0,0,73.43,17.68Z"/></g></g></svg>