<svg width="269" height="69" viewBox="0 0 269 69" fill="none" xmlns="http://www.w3.org/2000/svg">
<path d="M27.4263 39.645C27.343 38.4593 26.9926 37.3077 26.4014 36.2765C25.9356 35.4523 25.4984 34.6066 25.0468 33.768L25.0898 33.682C25.5219 32.0444 25.7459 30.3588 25.7564 28.6651C25.8424 26.9235 25.9642 25.1819 26.0646 23.4403C26.2124 20.0869 26.0396 16.727 25.5485 13.4064C25.312 11.6433 24.5093 8.3895 22.1227 8.52568C19.7361 8.66185 19.8149 12.9334 19.8077 14.6177C19.8077 16.4453 19.9654 18.2729 19.8077 20.1076C19.7217 21.2257 19.5927 22.3509 19.4064 23.4618C19.2188 24.29 19.0918 25.1308 19.0265 25.9775C18.8832 25.7768 18.7398 25.5689 18.6037 25.3611C18.1501 24.5589 17.6399 23.7901 17.0771 23.0605C17.0582 23.0394 17.035 23.0227 17.009 23.0115C16.983 23.0004 16.9548 22.9951 16.9266 22.996C16.8867 22.9846 16.8446 22.9846 16.8047 22.996C16.8617 21.9692 16.7626 20.9398 16.5109 19.9428C16.2672 18.6456 15.9519 17.3627 15.701 16.0654C15.3785 14.3597 14.9198 12.6754 14.4468 11.0055C14.1675 9.77253 13.6541 8.60467 12.9345 7.56529C12.268 6.72675 11.2861 6.00287 10.1752 6.30389C8.93531 6.64791 8.45511 7.64413 8.29744 8.83386C8.19379 10.3262 8.32438 11.8255 8.68446 13.2774C8.99981 15.0764 9.32233 16.861 9.66635 18.6599C10.0319 20.5735 10.4332 22.4799 10.7701 24.3935C10.9277 25.2679 11.0066 26.1495 11.1571 27.0238C11.3076 27.8982 11.6731 28.6293 11.7448 29.4535C8.35478 28.3354 6.79953 33.1158 6.34083 35.7103C5.39199 35.4807 4.39093 35.6325 3.55285 36.1332C1.42424 37.4304 1.19489 40.1754 1.08738 42.4258C1.01098 43.027 0.984608 43.6335 1.00855 44.2391C1.12898 44.7826 1.37436 45.2905 1.72525 45.7227C2.06901 46.54 2.22337 47.4245 2.17678 48.31C2.22714 49.0103 2.32048 49.7068 2.45629 50.3956C2.93648 52.8897 3.81086 55.9357 5.6743 57.7777C6.03019 58.1269 6.42451 58.4346 6.84969 58.695C6.73678 59.8049 6.72239 60.9225 6.80669 62.0349C6.80669 62.8161 6.84969 63.6045 6.80669 64.3857C6.68029 65.4103 6.7806 66.4501 7.10054 67.4317C7.17938 67.5965 7.42306 67.532 7.46606 67.3815C7.97492 65.7188 7.77424 63.798 7.74558 62.0349C7.74558 61.0673 7.69541 60.0926 7.60223 59.1681C8.35757 59.5698 9.19681 59.7882 10.0521 59.8056C10.9075 59.823 11.7549 59.639 12.526 59.2684C12.8342 59.0964 12.6048 58.7094 12.311 58.7452C9.57317 59.1251 6.8927 58.6305 5.41628 56.0432C3.87537 53.1979 3.43818 50.2881 2.98665 47.1776C2.92815 46.5269 2.74312 45.8939 2.44196 45.3142C2.30578 45.1063 2.11944 44.9271 1.9976 44.705C1.80104 44.2543 1.74122 43.7559 1.82559 43.2716C1.81738 41.917 1.96163 40.5659 2.25561 39.2437C2.6928 37.7458 3.76786 36.427 5.42345 36.3768C6.77083 36.4016 8.07663 36.8477 9.15749 37.6526C9.20623 37.6695 9.25925 37.6695 9.30799 37.6526C9.53734 38.312 9.64484 39.086 9.86702 39.6307C10.168 40.4191 10.3257 41.2361 10.5837 42.0317C10.8417 42.8272 11.2001 43.6801 11.4581 44.5258C11.5938 45.014 11.7614 45.4929 11.9598 45.9592C10.7342 46.7906 11.3793 48.525 12.483 49.3635C11.947 49.1473 11.4825 48.7847 11.1428 48.3172C10.3054 47.1641 9.36248 46.0916 8.32611 45.1135C7.83146 44.7106 7.36454 44.2748 6.92853 43.8091C6.58442 43.3485 6.18483 42.932 5.7388 42.5692C4.82859 41.96 3.40951 42.2037 2.93648 40.9709C2.91492 40.9247 2.87765 40.8877 2.83132 40.8665C2.785 40.8452 2.73263 40.8411 2.68355 40.8549C2.63448 40.8687 2.5919 40.8994 2.5634 40.9417C2.5349 40.9839 2.52234 41.0349 2.52796 41.0856C2.88631 42.7269 4.4774 41.9671 5.39478 42.9275C5.01493 42.9992 4.62074 43.2644 4.26239 43.3504C3.66752 43.5081 3.05116 43.6012 2.44912 43.7159C2.29862 43.7159 2.29145 43.9954 2.44912 44.0169C3.10685 44.1224 3.77886 44.098 4.42723 43.9453C4.92178 43.89 5.38603 43.6792 5.75314 43.3432C6.13377 43.9005 6.54783 44.4343 6.99304 44.9415C7.75274 45.694 8.61996 46.3749 9.30799 47.1704C10.254 48.2957 11.1858 50.2738 12.9417 50.1663C12.7107 50.8964 12.7514 51.6855 13.0564 52.388C13.064 52.4106 13.08 52.4294 13.1011 52.4405C13.1222 52.4516 13.1468 52.4542 13.1697 52.4478C13.1927 52.4414 13.2123 52.4264 13.2245 52.406C13.2368 52.3855 13.2407 52.3611 13.2355 52.3379C13.2355 51.9365 13.171 51.5352 13.1782 51.1338C13.1932 50.7906 13.2267 50.4485 13.2785 50.1089C13.7449 49.9487 14.1378 49.6257 14.3853 49.1991C14.6328 48.7726 14.7182 48.2712 14.6259 47.7868C14.9587 47.7911 15.2883 47.7213 15.5908 47.5825C15.8932 47.4436 16.161 47.2392 16.3747 46.9841C17.3136 45.8804 17.2491 44.1173 17.0556 42.777C16.781 41.1761 16.3808 39.5992 15.8587 38.0611C16.0307 37.7673 16.1884 37.4519 16.3819 37.1796C16.7552 36.6076 17.2434 36.1195 17.8153 35.7461C17.8327 35.7366 17.8458 35.7209 17.8521 35.7021C17.8584 35.6832 17.8574 35.6628 17.8493 35.6447C17.8411 35.6266 17.8265 35.6122 17.8082 35.6045C17.79 35.5967 17.7695 35.5961 17.7508 35.6028C17.1602 35.8176 16.6566 36.2205 16.3174 36.7495C16.101 37.0249 15.9 37.312 15.7153 37.6096C15.6795 37.4734 15.6365 37.3444 15.5935 37.2082C15.0775 35.4738 14.4468 33.7752 13.8734 32.0623C13.6496 31.1677 13.1477 30.3672 12.44 29.776C12.3767 29.0784 12.2075 28.3944 11.9383 27.7477C11.7173 26.9303 11.5638 26.0961 11.4796 25.2536C11.2001 23.3973 10.8561 21.5554 10.5336 19.7063C10.211 17.8572 9.88136 15.8647 9.58751 13.9726C9.31516 12.1594 8.70596 10.0594 9.25782 8.239C9.31311 7.99467 9.42823 7.76791 9.59283 7.57909C9.75743 7.39026 9.96636 7.24527 10.2009 7.15716C10.4353 7.06905 10.688 7.04057 10.9363 7.07428C11.1845 7.10799 11.4205 7.20283 11.623 7.35028C12.3011 7.86697 12.8263 8.55809 13.1424 9.34989C13.8369 11.0048 14.3186 12.7411 14.5758 14.5173C15.099 17.4558 15.6867 20.3872 15.9303 23.3543C14.8696 24.1714 14.3393 26.1996 14.3393 27.2604C14.3823 28.421 14.7283 29.5501 15.3427 30.5357C15.7744 31.3904 16.4063 32.128 17.1846 32.6858C17.2408 33.6456 17.469 34.5875 17.8583 35.4666C18.0378 36.0055 18.1791 36.5563 18.2811 37.1151C18.2933 37.7255 18.3677 38.333 18.5033 38.9283C18.5156 38.9675 18.5389 39.0023 18.5703 39.0286C18.6018 39.055 18.6401 39.0718 18.6808 39.0771C18.7215 39.0824 18.7628 39.0759 18.8 39.0584C18.8371 39.0409 18.8685 39.0132 18.8903 38.9785C19.4565 38.1328 19.0337 36.7567 18.7757 35.8608C18.5284 34.8305 18.1803 33.8271 17.7364 32.865C17.7725 32.8472 17.8041 32.8215 17.8288 32.7897C17.8535 32.758 17.8706 32.721 17.8789 32.6817C17.8872 32.6423 17.8864 32.6016 17.8766 32.5626C17.8669 32.5235 17.8483 32.4873 17.8225 32.4565C16.4607 31.0231 15.0416 29.6757 14.9556 27.547C14.9171 26.4273 15.2497 25.3262 15.9017 24.415C16.083 25.2641 16.509 26.0415 17.1272 26.6512C17.5358 27.0668 18.5248 27.7405 19.1125 27.2819C19.9726 28.3856 20.9473 29.3531 21.9005 30.378C22.9182 31.5742 23.7692 32.9026 24.4305 34.3271C25.1256 35.4712 25.7272 36.6696 26.2294 37.9106C27.0249 40.4262 26.5663 43.2285 26.0001 45.737C25.4625 48.1308 24.6097 50.4529 24.0578 52.8396C23.841 54.1827 23.3533 55.4678 22.6244 56.6166C22.2159 57.1893 21.6877 57.6662 21.0763 58.0142C20.3515 58.3063 19.6066 58.5458 18.8473 58.7309C18.618 58.8169 18.5607 59.1896 18.8473 59.2469C19.4562 59.3452 20.0799 59.2949 20.6652 59.1002C21.2504 58.9055 21.78 58.5723 22.2087 58.1289C22.1299 59.4476 22.0438 60.752 22.0653 62.0707C22.0833 62.7784 22.1432 63.4844 22.2445 64.185C22.3879 65.2242 22.1944 66.5788 22.8466 67.4675C22.8735 67.5112 22.9124 67.5461 22.9588 67.568C23.0051 67.59 23.0568 67.598 23.1076 67.5912C23.1584 67.5844 23.2061 67.563 23.245 67.5296C23.2839 67.4962 23.3123 67.4522 23.3267 67.403C23.5341 66.3652 23.4998 65.2935 23.2264 64.271C23.089 63.5182 23.0052 62.7566 22.9756 61.9919C22.9756 60.5083 22.9756 59.0176 22.8251 57.5412C23.3806 56.8955 23.8371 56.1709 24.1796 55.391C24.5763 54.2694 24.8877 53.1194 25.1113 51.9509C25.4554 50.6106 25.828 49.2847 26.2079 47.9516C26.8959 45.264 27.6341 42.4258 27.4263 39.645ZM13.2857 49.256C13.24 49.2818 13.192 49.3034 13.1424 49.3205C12.6822 48.9332 12.2642 48.4984 11.8953 48.0233C11.6869 47.7499 11.5948 47.4053 11.6391 47.0644C11.6834 46.7236 11.8605 46.4139 12.1318 46.2029C12.2994 46.5798 12.5536 46.9119 12.8736 47.1721C13.1937 47.4324 13.5706 47.6135 13.9737 47.7008C13.8376 48.2742 13.9092 48.9192 13.2857 49.256ZM15.3427 46.7762C15.0964 46.9184 14.8171 46.9932 14.5328 46.9932C14.2484 46.9932 13.9691 46.9184 13.7229 46.7762C13.3359 45.8087 13.0492 44.576 13.5222 43.6657C13.6501 43.4436 13.832 43.2574 14.0511 43.1245C14.2703 42.9916 14.5195 42.9163 14.7755 42.9055C15.0316 42.8948 15.2862 42.949 15.5157 43.0631C15.7452 43.1773 15.9421 43.3476 16.088 43.5582C16.1695 43.6857 16.2345 43.823 16.2815 43.9668C16.3675 45.1135 16.2099 46.2674 15.3427 46.7762ZM13.6799 33.3667C14.0669 34.8359 14.5113 36.2837 14.9126 37.7386C15.314 39.1935 15.7942 40.6842 16.0809 42.1893C16.131 42.4617 16.1884 42.7985 16.2385 43.164C15.9721 42.8737 15.6211 42.6746 15.2352 42.5949C14.8493 42.5151 14.4481 42.5588 14.0884 42.7197C12.6908 43.3074 12.8557 45.1207 13.3 46.4824C12.8073 46.0605 12.4258 45.524 12.1891 44.92C11.7305 43.7374 11.5083 42.4617 10.9636 41.3364C10.5641 40.6652 10.2601 39.9415 10.0605 39.1863C9.97453 38.6631 9.88136 38.1256 9.74518 37.6167C9.68298 37.2093 9.51248 36.8261 9.2515 36.5071C8.99051 36.1881 8.64864 35.9451 8.2616 35.8035C8.20268 35.7873 8.13975 35.7952 8.08666 35.8255C8.03357 35.8557 7.99466 35.9058 7.97851 35.9647C7.96235 36.0237 7.97026 36.0866 8.0005 36.1397C8.03074 36.1928 8.08084 36.2317 8.13976 36.2478C8.46295 36.3649 8.74121 36.5805 8.93531 36.8642C8.30194 36.4203 7.60637 36.0725 6.8712 35.8321C7.10866 34.5538 7.50847 33.311 8.06093 32.134C8.77763 30.8367 10.3114 29.2241 11.9168 30.1272C12.9919 30.7364 13.3932 32.306 13.6799 33.3667ZM18.1163 26.9163C17.7582 26.7004 17.4444 26.4182 17.1918 26.085C16.7285 25.4918 16.3831 24.8155 16.174 24.0925C16.3609 23.8819 16.5699 23.692 16.7976 23.5263C17.3026 24.8162 18.0304 26.0073 18.9477 27.0453C18.664 27.1006 18.3699 27.0549 18.1163 26.9163ZM20.5818 27.9627C20.1231 27.4324 19.6859 26.8877 19.2702 26.3215C19.8829 24.6835 20.25 22.9639 20.3596 21.2185C20.528 19.3793 20.5854 17.5317 20.5316 15.6856C20.4282 13.8905 20.6121 12.0904 21.0763 10.3533C21.1115 10.1582 21.192 9.97419 21.3112 9.81586C21.4304 9.65752 21.585 9.52932 21.7627 9.44152C21.9404 9.35373 22.1361 9.30879 22.3343 9.3103C22.5325 9.31181 22.7276 9.35973 22.9039 9.45023C23.6388 9.93565 24.1634 10.6804 24.3731 11.5358C24.8482 13.2208 25.068 14.9675 25.0253 16.7176C25.0683 18.495 25.1543 20.3011 25.1113 22.0499C25.0182 25.5904 24.71 29.1381 24.4376 32.6715C24.3015 32.4278 24.1581 32.1841 24.0076 31.9548C23.0544 30.4282 21.793 29.303 20.5818 27.9627Z" fill="#232324" stroke="#232324" stroke-width="0.872324"/>
<path d="M94.9789 30.748C93.4093 29.7876 91.5459 30.2678 90.0981 31.2067C88.515 32.3464 87.1526 33.7647 86.0774 35.3923C85.0525 36.7612 83.3253 39.2911 81.3758 39.069C81.3604 39.0218 81.3361 38.978 81.3041 38.9399C81.0175 38.5959 81.125 37.8434 81.1106 37.4492C81.1106 36.9332 81.039 36.41 80.9816 35.8939C80.8741 34.9407 80.7093 34.0018 80.5158 33.0701C80.0366 30.9438 79.6919 28.7894 79.4837 26.6198C79.4049 25.6666 79.3834 24.699 79.2759 23.753C79.154 22.6636 78.9247 21.6028 78.853 20.4848C78.8475 19.5244 78.9243 18.5653 79.0824 17.618C79.1862 16.5598 79.1862 15.494 79.0824 14.4358C78.9175 12.7874 78.7025 11.1389 78.4947 9.49769C78.4403 8.3419 78.0629 7.22452 77.4053 6.27252C77.0534 5.85658 76.5786 5.56307 76.0492 5.43427C75.5198 5.30547 74.9632 5.34802 74.4596 5.55581C73.1265 6.08617 72.8829 7.70593 72.804 8.92433C72.6535 11.0744 73.105 13.2246 72.9545 15.3747C72.8829 16.4282 72.7108 17.4603 72.5818 18.5067C72.4887 19.2664 72.675 20.1623 72.5173 20.9291C72.0717 20.4027 71.4687 20.0334 70.7972 19.8756C69.1847 19.4814 66.884 19.8756 66.2103 21.524C66.0548 21.1712 65.8072 20.8667 65.4936 20.6425C64.6407 20.0548 63.4152 20.2841 62.4906 20.5565C62.0294 20.662 61.5998 20.8756 61.2372 21.1796C60.8746 21.4837 60.5894 21.8694 60.405 22.3052C60.1058 23.1601 60.0077 24.0724 60.1183 24.9714C59.975 24.8997 59.8317 24.828 59.6883 24.7707C59.3361 24.6137 58.9554 24.5308 58.5698 24.5273C58.1842 24.5238 57.802 24.5997 57.447 24.7503C57.0921 24.9009 56.7719 25.123 56.5064 25.4027C56.241 25.6824 56.036 26.0137 55.9041 26.3761C55.0727 28.3327 55.3236 30.8197 55.2304 32.8838C55.0779 34.4843 54.8386 36.0753 54.5137 37.6499C54.2799 39.1406 54.1815 40.6495 54.2198 42.158C54.3883 44.8915 54.8693 47.5968 55.6533 50.2209C56.37 52.7724 56.5133 56.0334 58.5201 57.9756C58.7689 58.2096 59.0401 58.4185 59.33 58.5992C59.2308 59.7007 59.2308 60.8089 59.33 61.9104C59.33 62.6916 59.373 63.4728 59.33 64.254C59.1992 65.2785 59.2997 66.3193 59.6238 67.3C59.6955 67.4648 59.9392 67.4003 59.9893 67.257C60.4982 65.5871 60.2975 63.6734 60.2617 61.9104C60.2617 60.9428 60.2115 59.9824 60.1255 59.0435C60.64 59.2612 61.1791 59.4152 61.7309 59.5022C62.3585 59.6081 62.9938 59.6608 63.6302 59.6599C64.3779 59.584 65.106 59.3753 65.7803 59.0435C65.8464 59.0283 65.9044 58.989 65.943 58.9332C65.9816 58.8775 65.998 58.8094 65.9891 58.7422C65.9801 58.6749 65.9464 58.6135 65.8945 58.5698C65.8427 58.5262 65.7764 58.5034 65.7086 58.506C64.7483 58.506 63.838 58.7568 62.8418 58.7067C61.7383 58.6942 60.6578 58.39 59.7098 57.8251C57.8249 56.5852 57.3877 54.0266 56.929 51.984C56.4703 49.9414 55.8754 47.8916 55.4382 45.8203C54.9191 43.4565 54.7811 41.0248 55.0297 38.6174C55.2949 36.2308 55.7823 33.88 55.9758 31.4504C56.0976 29.8378 55.9041 27.9314 56.6423 26.4334C57.6099 24.484 59.717 25.3082 61.0787 26.2973C61.8178 26.7757 62.3832 27.4793 62.6913 28.304C62.9057 29.3402 63.0304 30.3928 63.064 31.4504C63.1213 31.8302 63.193 32.2746 63.2288 32.7189C63.1605 32.5877 63.065 32.4724 62.9488 32.3807C62.8325 32.2891 62.6982 32.2231 62.5546 32.1872C62.411 32.1513 62.2614 32.1463 62.1157 32.1725C61.97 32.1986 61.8315 32.2554 61.7094 32.3391C60.62 32.8766 60.577 34.0807 60.9927 35.0769C60.276 34.6899 59.803 33.6435 59.5091 32.9268C59.2696 32.0451 58.8499 31.2227 58.2764 30.5115C57.918 30.1603 57.488 29.9811 57.2802 29.4866C57.1297 29.1211 57.0795 28.6982 56.9577 28.3184C56.9349 28.2666 56.8943 28.2247 56.8433 28.2002C56.7923 28.1758 56.7342 28.1705 56.6795 28.1852C56.6249 28.1999 56.5774 28.2338 56.5456 28.2806C56.5137 28.3274 56.4998 28.384 56.5061 28.4402C56.5794 29.1585 56.8388 29.8453 57.2587 30.4327C57.743 30.8481 58.1443 31.3515 58.4412 31.9162C58.6634 32.4323 58.8139 32.9698 59.0361 33.4858C58.8185 33.5644 58.6095 33.6653 58.4126 33.7868C58.0112 34.0018 57.6385 34.267 57.2372 34.5035C57.1153 34.5609 57.2013 34.7687 57.3304 34.7257C57.7043 34.5829 58.0662 34.4103 58.4126 34.2097C58.6093 34.1011 58.8127 34.0054 59.0218 33.923L59.1938 33.8657C59.4818 34.6537 60.0373 35.3157 60.7634 35.7363C61.1676 35.8922 61.6087 35.9257 62.0318 35.8327C62.4549 35.7396 62.8413 35.5242 63.1428 35.2131C63.2646 35.0941 63.3728 34.9619 63.4653 34.8189C63.7346 35.4515 64.1855 35.99 64.7608 36.3663C65.3362 36.7426 66.0102 36.9399 66.6977 36.9332C67.0282 36.9161 67.3516 36.8309 67.6476 36.6829C67.9436 36.5349 68.2058 36.3273 68.4178 36.0731C68.6079 36.6026 68.9001 37.0896 69.2778 37.5065C69.6757 37.8752 70.1554 38.144 70.6775 38.2911C71.1995 38.4381 71.7491 38.4591 72.2808 38.3522C72.5837 38.2943 72.8746 38.1853 73.1409 38.0297C71.7111 39.2548 70.5309 40.7441 69.6648 42.416C67.9304 45.806 67.2137 49.5615 66.712 53.3099C66.712 53.5177 67.013 53.5894 67.099 53.4174C67.9304 51.8765 67.7943 49.9127 68.1956 48.293C68.6258 46.4725 69.2331 44.6986 70.0089 42.9965C71.6 39.6423 74.3091 37.4349 77.3838 35.4496C77.4097 35.4278 77.4271 35.3975 77.4329 35.3641C77.4386 35.3307 77.4323 35.2963 77.4152 35.2671C77.398 35.2379 77.371 35.2157 77.339 35.2045C77.307 35.1933 77.2721 35.1938 77.2404 35.2059C76.0301 35.8941 74.8752 36.6753 73.7859 37.5424C74.6316 36.5605 74.7535 34.9694 74.5886 33.665C74.4023 32.2316 74.1658 30.7982 74.0654 29.2931C74.0224 28.7126 73.9937 28.1249 73.9651 27.5443C74.3623 27.4136 74.7854 27.3816 75.1978 27.4512C75.5423 27.5479 75.9068 27.5479 76.2514 27.4512C76.2677 27.4408 76.2811 27.4265 76.2903 27.4096C76.2996 27.3927 76.3045 27.3737 76.3045 27.3544C76.3045 27.3351 76.2996 27.3161 76.2903 27.2992C76.2811 27.2823 76.2677 27.268 76.2514 27.2576C75.8384 27.0684 75.3864 26.98 74.9326 26.9996C74.5947 26.9555 74.2513 27.0181 73.9507 27.1788C73.9149 26.3116 73.8791 25.4516 73.8074 24.5915C73.7548 23.4388 73.4201 22.3166 72.8327 21.3233C72.9391 20.9094 72.9778 20.481 72.9474 20.0548C72.9359 19.2184 73.0372 18.3843 73.2484 17.575C73.6653 15.8886 73.8201 14.1481 73.7071 12.4147C73.5924 10.7591 73.1552 9.02467 73.6641 7.39774C73.71 7.15452 73.8079 6.92408 73.9511 6.72216C74.0943 6.52024 74.2794 6.35161 74.4937 6.22777C74.708 6.10394 74.9466 6.02782 75.193 6.00462C75.4395 5.98142 75.688 6.01168 75.9217 6.09334C76.2308 6.22087 76.5077 6.4157 76.7321 6.66365C76.9565 6.9116 77.1228 7.20645 77.2189 7.52675C77.6195 8.72259 77.8605 9.96606 77.9356 11.225C78.185 12.9827 78.331 14.7537 78.3728 16.5286C78.3728 18.392 78.208 20.3199 78.3728 22.169C78.5377 24.0181 78.4373 25.9102 78.7813 27.7522C79.1755 29.8091 79.5554 31.8661 79.9782 33.9158C80.1799 35.0825 80.3139 36.2599 80.3796 37.442C80.3721 38.0209 80.4693 38.5963 80.6663 39.1406C80.648 39.1895 80.6481 39.2433 80.6665 39.2921C80.685 39.3409 80.7206 39.3813 80.7666 39.4058L80.8741 39.456C80.918 39.4955 80.9731 39.5206 81.0318 39.5276C82.1427 39.9648 83.1819 39.4201 84.0491 38.6318C85.139 37.6018 86.1212 36.4636 86.9805 35.2346C88.0092 33.6994 89.3683 32.4138 90.9582 31.4719C91.4065 31.195 91.9067 31.0127 92.4281 30.9363C92.9494 30.8599 93.4809 30.8909 93.9898 31.0275C95.1724 31.393 96.2188 32.7118 95.5236 33.8943C94.4629 35.7649 92.5636 37.0622 91.2233 38.6819C90.8435 39.1335 90.5066 39.6352 90.1268 40.0723C89.519 40.6234 88.9492 41.2148 88.421 41.8426C87.9833 42.5592 87.5884 43.3011 87.2385 44.0644C86.7126 45.0073 86.0206 45.8474 85.1959 46.5442C83.6304 47.7907 82.1507 49.1412 80.7666 50.5864C79.4049 52.1488 78.3011 53.9048 76.9609 55.4815C76.3564 56.2253 75.6292 56.8604 74.8108 57.3593C73.8601 57.8396 72.8083 58.0853 71.7433 58.076C71.6962 58.0694 71.6483 58.0721 71.6023 58.0841C71.5563 58.096 71.5131 58.1168 71.4752 58.1455C71.4373 58.1741 71.4053 58.2099 71.3813 58.2508C71.3572 58.2918 71.3414 58.3371 71.3348 58.3842C71.3282 58.4312 71.3309 58.4791 71.3428 58.5251C71.3548 58.5711 71.3756 58.6143 71.4043 58.6523C71.4329 58.6902 71.4687 58.7221 71.5096 58.7462C71.5506 58.7703 71.5959 58.7861 71.643 58.7927C72.6668 59.0218 73.7392 58.8635 74.6531 58.3483C74.5402 59.7788 74.5139 61.2149 74.5743 62.6486C74.6244 63.4226 74.7821 64.1823 74.8395 64.9564C74.8968 65.7304 74.8395 66.7194 75.3842 67.4003C75.5203 67.5723 75.764 67.4505 75.8285 67.2856C76.3732 65.8522 75.5705 63.9171 75.4702 62.4192C75.3698 60.9213 75.3913 59.5524 75.205 58.119C75.5123 57.9256 75.8067 57.7125 76.0865 57.4811C77.5701 56.2412 78.638 54.5713 79.8134 53.0662C81.1835 51.2286 82.7505 49.5463 84.4863 48.0493C85.2945 47.432 86.0323 46.7278 86.6866 45.9493C87.2347 45.1386 87.7302 44.2935 88.1702 43.4194C88.7104 42.5554 89.3855 41.7836 90.1698 41.1331C90.6844 40.5939 91.1632 40.0217 91.6032 39.4201C92.9721 37.7645 94.728 36.4315 95.9034 34.611C96.1213 34.3043 96.2711 33.9546 96.3427 33.5852C96.4143 33.2159 96.406 32.8355 96.3184 32.4696C96.2308 32.1037 96.066 31.7608 95.835 31.4638C95.6039 31.1669 95.312 30.9228 94.9789 30.748ZM62.0104 35.2131C61.8406 35.2619 61.6628 35.2766 61.4872 35.2561C61.1719 34.5394 60.8637 33.6077 61.4872 32.9698C61.639 32.7988 61.8354 32.6734 62.0543 32.6076C62.2733 32.5418 62.5062 32.5381 62.7271 32.5971C62.8832 32.6956 63.0131 32.8306 63.1054 32.9904C63.1978 33.1502 63.25 33.3301 63.2575 33.5145C63.2721 33.8979 63.1559 34.2749 62.928 34.5835C62.7001 34.8922 62.374 35.1142 62.0033 35.2131H62.0104ZM63.9742 33.6793C63.9626 33.6061 63.9243 33.5397 63.8667 33.493C63.8807 33.1818 63.8663 32.8699 63.8237 32.5613C63.752 31.9521 63.6159 31.3429 63.5514 30.7265C63.4868 30.1101 63.5084 29.3504 63.3937 28.6767C63.1572 27.2433 61.9603 26.0106 60.6559 25.2437C60.7672 24.5315 60.839 23.8137 60.8709 23.0936C60.9682 22.5293 61.2431 22.0109 61.6556 21.6138C62.0682 21.2167 62.5968 20.9618 63.1643 20.8861C63.5234 20.7709 63.9042 20.74 64.2771 20.796C64.65 20.8519 65.005 20.9931 65.3144 21.2087C65.6472 21.6226 65.8647 22.1171 65.9452 22.6421C66.239 23.7816 66.5257 24.8997 66.8625 26.0249C67.3011 27.3674 67.6177 28.7467 67.8086 30.146C67.8874 30.8627 67.8874 31.6224 67.9376 32.3606C67.9376 32.6043 67.9878 32.848 68.0236 33.0773C67.7112 32.7649 67.2906 32.5847 66.8489 32.574C66.4073 32.5634 65.9784 32.723 65.6513 33.02C65.3283 33.3313 65.0953 33.7239 64.9767 34.1565C64.8581 34.5892 64.8584 35.0458 64.9776 35.4783C64.4417 35.0144 64.0844 34.3783 63.967 33.6793H63.9742ZM65.6155 35.9083H65.5796C65.3718 35.1199 65.1281 34.2599 65.7445 33.5575C65.9123 33.3668 66.12 33.2154 66.3528 33.1138C66.5857 33.0123 66.838 32.9631 67.0919 32.9698C67.3231 33.0083 67.5414 33.1029 67.7276 33.2453C67.9137 33.3878 68.0621 33.5737 68.1598 33.7868C68.1598 33.9732 68.2028 34.1595 68.2099 34.3459C68.2744 35.8653 66.8912 36.539 65.6083 35.9083H65.6155ZM71.0911 37.4779C70.7526 37.4069 70.4313 37.2705 70.145 37.0765C69.8512 35.8079 69.6792 34.3459 71.3061 33.9875C71.6798 33.8642 72.0826 33.8601 72.4588 33.9756C72.835 34.0912 73.166 34.3207 73.4061 34.6325C73.6071 34.9895 73.7293 35.3854 73.7644 35.7936C73.7189 36.0905 73.61 36.374 73.4452 36.6251C73.2804 36.8761 73.0635 37.0888 72.8092 37.2485C72.5549 37.4083 72.2692 37.5115 71.9715 37.5511C71.6738 37.5906 71.3711 37.5657 71.0839 37.4779H71.0911ZM73.2914 28.347C73.3661 29.7487 73.5289 31.1442 73.7787 32.5254C73.9202 33.3247 73.9611 34.1385 73.9006 34.9479C73.8156 34.7233 73.7049 34.5093 73.5709 34.31C73.2924 34.0334 72.9519 33.8272 72.5777 33.7087C72.2035 33.5902 71.8064 33.5627 71.4194 33.6286C71.0324 33.6945 70.6668 33.8518 70.3529 34.0876C70.039 34.3233 69.7859 34.6305 69.6147 34.9837C69.4768 35.4657 69.445 35.9719 69.5215 36.4673C69.2503 36.0205 69.0428 35.5381 68.9051 35.0339C69.0915 33.966 68.6686 32.6544 68.6185 31.6654C68.4608 28.6266 67.4072 25.9317 66.6834 23.0004C66.6404 22.8284 66.5974 22.6421 66.5472 22.4629C66.579 22.4267 66.599 22.3817 66.6045 22.3339C66.9414 19.9903 70.4962 19.6749 71.9726 21.1298C73.6641 22.7854 73.1767 26.2041 73.2842 28.347H73.2914Z" fill="#232324" stroke="#232324" stroke-width="0.872324"/>
<path d="M265.998 34.7488C265.998 30.1332 265.554 25.5176 265.074 20.9379C264.801 17.2139 264.204 13.5208 263.289 9.90059C263.325 9.45457 263.325 9.00638 263.289 8.56035C263.289 7.70031 263.232 6.83309 263.174 5.96588C263.088 4.70448 263.131 3.09906 262.458 1.93799C262.355 1.73204 262.212 1.54915 262.036 1.40051C261.861 1.25187 261.657 1.14061 261.437 1.07352C261.217 1.00644 260.985 0.984941 260.757 1.01035C260.528 1.03576 260.307 1.10753 260.107 1.22129C259.278 1.75534 258.69 2.5906 258.466 3.55058C258.061 3.54794 257.663 3.65974 257.319 3.8731C256.129 4.58981 256.065 6.20956 256.265 7.45663C256.324 7.80201 256.4 8.14411 256.495 8.48152C256.475 8.50825 256.458 8.53709 256.445 8.56752C256.216 9.32257 256.06 10.0977 255.979 10.8825C255.871 11.4917 255.771 12.1009 255.685 12.7172C255.484 14.2653 255.355 15.8134 255.276 17.3687C255.197 18.9239 255.162 20.515 255.226 22.0846C255.269 23.002 255.226 23.948 255.269 24.8869L255.219 24.8009C254.981 24.3316 254.605 23.9469 254.14 23.6994C253.676 23.4519 253.147 23.3535 252.624 23.4177C252.027 23.5235 251.472 23.7945 251.021 24.1998C250.57 24.6052 250.242 25.1287 250.073 25.7111C249.903 26.3388 249.84 26.9905 249.887 27.639C248.991 27.462 248.063 27.5646 247.228 27.9329C246.156 28.5771 245.189 29.382 244.361 30.3195C243.481 31.044 242.675 31.8529 241.953 32.7348C241.236 33.7239 241.236 34.9638 241.129 36.132C240.627 41.8656 240.799 47.8716 242.763 53.3329C243.147 54.6986 243.83 55.9618 244.762 57.0311C245.176 57.4204 245.641 57.7508 246.145 58.013C246.006 59.0965 245.97 60.1909 246.038 61.2812C246.038 62.1197 246.088 62.9655 246.081 63.8112C246.081 64.9221 245.93 65.9613 246.375 67.0363C246.446 67.2012 246.697 67.1367 246.74 66.9862C247.271 65.2087 247.056 63.1231 247.013 61.2525C247.013 60.285 246.977 59.3174 246.905 58.3857C247.333 58.5713 247.771 58.7339 248.217 58.8731C248.532 58.9662 248.819 58.5147 248.554 58.2925C247.436 57.3823 246.002 57.1888 245.106 55.9632C244.235 54.6195 243.596 53.1393 243.214 51.5842C242.285 48.4742 241.777 45.2539 241.702 42.009C241.645 40.3892 241.702 38.7767 241.752 37.1641C241.802 35.5515 241.802 33.7884 242.999 32.484C243.895 31.5021 244.934 30.5847 245.866 29.6817C246.444 29.0931 247.147 28.6424 247.923 28.3629C248.602 28.1906 249.307 28.1469 250.001 28.2339C250.046 28.4809 250.121 28.7216 250.224 28.9506C249.123 29.1252 248.113 29.6655 247.357 30.4844C247.322 30.5256 247.303 30.5776 247.303 30.6313C247.303 30.685 247.322 30.737 247.357 30.7782C246.561 32.828 248.84 34.8348 250.826 35.2935C251.076 35.3508 251.334 35.3938 251.6 35.4296C251.478 36.5801 251.531 37.7424 251.757 38.877C250.439 38.877 250.195 40.4609 250.496 41.5073C250.32 41.3516 250.152 41.1865 249.994 41.0128C249.307 40.1718 248.729 39.247 248.274 38.2606C247.683 37.2695 247.203 36.2169 246.841 35.1214C246.518 33.9891 246.317 32.8137 245.973 31.6813C245.962 31.6423 245.939 31.6081 245.907 31.5837C245.874 31.5593 245.835 31.5461 245.794 31.5461C245.754 31.5461 245.714 31.5593 245.682 31.5837C245.65 31.6081 245.626 31.6423 245.615 31.6813C245.511 32.3101 245.563 32.9548 245.766 33.559C245.809 33.7525 245.852 33.9532 245.902 34.1467C245.615 34.1223 245.33 34.0793 245.049 34.0177C244.659 33.9104 244.287 33.7462 243.945 33.5304C243.933 33.5246 243.92 33.5227 243.906 33.525C243.893 33.5272 243.881 33.5335 243.872 33.543C243.862 33.5524 243.856 33.5645 243.854 33.5777C243.852 33.5908 243.853 33.6043 243.859 33.6164C244.091 33.9568 244.421 34.2187 244.805 34.3672C245.189 34.5157 245.609 34.5438 246.009 34.4477C246.138 34.9924 246.282 35.5228 246.461 36.0532C246.554 36.3183 246.647 36.5835 246.755 36.8487C245.373 36.8851 244.019 37.2408 242.798 37.8879C242.655 37.9668 242.755 38.2248 242.913 38.1603C244.214 37.7137 245.564 37.4226 246.934 37.2931C247.342 38.2635 247.821 39.2026 248.367 40.1025C248.909 41.1515 249.733 42.0279 250.747 42.6325C248.991 43.3851 248.288 46.5959 247.83 48.1153C247.83 48.2228 247.937 48.2658 247.995 48.187C248.519 47.3259 248.924 46.3976 249.199 45.4277C249.554 44.3605 250.252 43.4407 251.184 42.8117C251.583 42.9584 252.022 42.9541 252.418 42.7997C252.814 42.6452 253.14 42.3512 253.334 41.9731C253.472 42.0732 253.63 42.1422 253.797 42.1756C253.964 42.209 254.136 42.206 254.302 42.1667C254.011 42.931 253.771 43.7139 253.585 44.5103C253.253 45.9353 253.121 47.3993 253.191 48.8607C253.248 49.9788 253.277 51.7275 254.137 52.5804C254.23 52.6664 254.423 52.6449 254.445 52.5016C254.478 51.9459 254.418 51.3887 254.266 50.8531C254.15 50.1947 254.08 49.5289 254.058 48.8607C254.029 47.4815 254.173 46.1042 254.488 44.7611C254.79 43.4022 255.252 42.0838 255.864 40.8336C256.387 39.7585 257.118 38.8412 257.706 37.8234C258.255 38.4871 258.969 38.994 259.777 39.2927C259.804 39.2987 259.832 39.2969 259.858 39.2875C259.884 39.2781 259.906 39.2614 259.923 39.2395C259.94 39.2176 259.949 39.1913 259.952 39.1639C259.954 39.1365 259.948 39.109 259.935 39.0848C259.382 38.3976 258.762 37.7663 258.086 37.1999C257.744 36.8147 257.46 36.3827 257.24 35.917C257.117 35.6137 256.973 35.3191 256.81 35.0354C257.441 34.8204 257.993 34.4836 258.093 33.9604C258.1 33.9295 258.101 33.8973 258.094 33.8661C258.088 33.835 258.075 33.8057 258.055 33.7803C258.036 33.7549 258.012 33.7342 257.983 33.7194C257.955 33.7047 257.924 33.6964 257.892 33.6952C257.5 33.7589 257.128 33.9109 256.803 34.1396C256.329 34.3466 255.83 34.4912 255.319 34.5696C254.21 34.7499 253.082 34.7764 251.965 34.6484C250.854 34.4845 249.804 34.0405 248.912 33.3583C250.575 33.3583 253.105 33.4945 253.678 31.6454C253.864 31.0506 253.915 29.5383 253.327 28.9721C254.044 28.8144 254.71 28.6568 255.412 28.5206C256.989 28.2124 258.215 28.1479 259.577 29.1011C260.637 29.9241 261.58 30.8887 262.379 31.968C263.174 32.9355 263.927 33.9389 264.701 34.9208C265.74 36.2395 266.994 37.7231 266.951 39.5005C266.816 41.2296 266.533 42.944 266.106 44.625C265.762 46.3522 265.654 48.1297 265.289 49.8497C264.769 51.7387 263.936 53.5267 262.823 55.139C262.366 55.8785 261.793 56.5392 261.125 57.0956C260.408 57.6977 259.555 57.7407 258.745 58.1349C258.681 58.1761 258.632 58.2366 258.605 58.3077C258.577 58.3788 258.573 58.4567 258.593 58.5302C258.613 58.6036 258.656 58.6688 258.716 58.7163C258.775 58.7638 258.848 58.7911 258.924 58.7942C259.845 58.7432 260.735 58.4489 261.504 57.9413C261.433 59.2027 261.354 60.457 261.375 61.7255C261.393 62.4116 261.45 63.096 261.547 63.7753C261.691 64.8217 261.497 66.1763 262.15 67.0578C262.176 67.1016 262.214 67.1368 262.26 67.1593C262.306 67.1817 262.357 67.1904 262.408 67.1844C262.459 67.1783 262.507 67.1577 262.546 67.1251C262.585 67.0925 262.614 67.0492 262.63 67.0005C262.833 65.9719 262.798 64.9105 262.529 63.8972C262.392 63.1443 262.309 62.3827 262.279 61.618C262.279 60.2276 262.279 58.8301 262.15 57.4397C262.407 57.2201 262.647 56.9805 262.866 56.7229C263.369 56.0704 263.817 55.3776 264.206 54.6517C264.775 53.7724 265.278 52.8526 265.712 51.8995C266.5 50.0504 266.507 48.0652 266.901 46.1229C267.295 44.1806 267.776 42.2742 267.976 40.3176C268.163 38.1889 267.224 36.39 265.998 34.7488ZM251.413 42.0162C251.154 41.9436 250.91 41.822 250.697 41.6578C250.61 41.1839 250.61 40.6983 250.697 40.2244C250.847 39.5865 251.248 39.393 251.8 39.2353C251.85 39.4432 251.893 39.651 251.951 39.8517C252.079 40.4704 252.352 41.0499 252.746 41.5431C252.604 41.7542 252.398 41.9141 252.158 41.9993C251.918 42.0844 251.657 42.0903 251.413 42.0162ZM255.176 40.2459C254.908 40.7481 254.669 41.265 254.459 41.794C254.346 41.701 254.205 41.6481 254.058 41.6435C253.926 41.2204 253.887 40.7736 253.945 40.3341C254.003 39.8947 254.157 39.4732 254.395 39.0992C254.562 38.877 254.779 38.6967 255.027 38.5724C255.276 38.448 255.55 38.383 255.828 38.3825C256.014 38.3682 256.201 38.3682 256.387 38.3825C255.936 38.9614 255.531 39.5749 255.176 40.2172V40.2459ZM257.283 37.4507V37.3217C257.298 37.3486 257.317 37.3728 257.34 37.3934L257.283 37.4507ZM255.004 35.4368C255.488 35.3796 255.967 35.2862 256.437 35.1573C256.376 35.4034 256.371 35.6603 256.423 35.9086C256.475 36.1569 256.583 36.3901 256.738 36.5907C256.724 36.7672 256.724 36.9446 256.738 37.1211C256.738 37.4006 256.738 37.6729 256.738 37.9524C256.327 37.8372 255.894 37.8248 255.477 37.9166C255.191 37.9637 254.917 38.0671 254.671 38.2209C254.424 38.3747 254.211 38.5758 254.044 38.8125C253.759 39.2058 253.587 39.6698 253.548 40.1539C253.509 40.6379 253.604 41.1234 253.821 41.5575C253.511 41.4313 253.246 41.2139 253.062 40.9339C252.691 40.3214 252.463 39.633 252.395 38.92C252.223 37.7733 252.395 36.6122 252.295 35.4726C253.197 35.5583 254.105 35.5463 255.004 35.4368ZM260.222 1.88783C261.762 0.913106 262.085 3.09906 262.2 4.08095C262.314 5.06283 262.386 6.23106 262.429 7.34912C262.032 6.16595 261.345 5.10134 260.429 4.25296C260.053 3.94239 259.612 3.71959 259.139 3.60076C259.455 2.99156 259.62 2.27485 260.222 1.88783ZM253.055 31.9895C252.159 33.2222 250.001 32.957 248.611 33.1147C248.253 32.8448 247.991 32.4679 247.862 32.0387C247.733 31.6095 247.744 31.1504 247.894 30.728C248.896 30.0833 250.021 29.656 251.198 29.4738L252.632 29.1298C253.578 29.61 253.614 31.2011 253.026 32.0181L253.055 31.9895ZM251.091 28.7499H250.99C250.821 28.0451 250.725 27.3245 250.704 26.5998C250.718 26.0155 250.929 25.4531 251.302 25.0032C251.675 24.5533 252.189 24.2422 252.761 24.12C253.233 24.0997 253.7 24.2213 254.103 24.4691C254.505 24.717 254.824 25.0796 255.018 25.5104C255.36 26.1835 255.581 26.9112 255.67 27.6606C254.13 27.9114 252.596 28.3701 251.091 28.7499ZM256.824 27.5172C256.574 27.5172 256.316 27.5674 256.065 27.6032C256.084 27.0873 255.999 26.5729 255.814 26.091C255.986 24.7722 255.886 23.389 255.972 22.0631C256.072 20.4935 256.101 18.9167 256.187 17.3472C256.273 15.7776 256.409 14.0862 256.638 12.4664C256.731 11.8429 256.946 11.0903 257.061 10.3163C257.391 11.4343 257.656 12.5882 257.878 13.735C258.307 16.4271 258.509 19.1507 258.48 21.8767C258.523 23.647 259.276 25.9763 258.48 27.6606C257.949 27.5002 257.391 27.4442 256.839 27.4957L256.824 27.5172ZM263.569 31.8174C262.393 30.384 260.773 28.5564 258.874 27.8326C259.412 26.7288 259.29 25.3599 259.268 24.1774C259.268 22.3426 259.333 20.515 259.268 18.6802C259.209 16.7106 258.969 14.7506 258.552 12.8247C258.351 11.85 258.129 10.8681 257.835 9.91493C257.488 8.94925 257.231 7.95356 257.068 6.9406C256.982 6.14506 257.018 5.156 257.735 4.65431C258.021 4.47951 258.353 4.39492 258.688 4.41153C259.023 4.42815 259.345 4.54522 259.612 4.74748C261.01 5.64336 261.655 7.72181 262.135 9.21255C263.236 13.0431 263.897 16.9865 264.106 20.9665C264.285 23.217 264.558 25.4674 264.694 27.7251C264.808 29.6458 264.823 31.5881 264.952 33.5089C264.515 32.9068 264.034 32.3335 263.583 31.7888L263.569 31.8174Z" fill="#232324" stroke="#232324" stroke-width="0.872324"/>
<path d="M163.844 29.6981C161.737 28.4152 159.321 30.7301 157.974 32.1277C156.075 34.1058 154.226 36.2488 151.846 37.675C151.414 38.0115 150.888 38.2045 150.341 38.2269C149.417 38.1265 149.151 36.9583 148.951 36.2058C148.542 34.6362 148.521 32.9949 148.055 31.4397C148.047 31.4116 148.035 31.385 148.019 31.3608C148.062 30.1572 147.951 28.9529 147.689 27.7773C147.188 25.4122 146.256 22.0437 143.568 21.327C143.196 21.1932 142.8 21.1346 142.405 21.1546C142.01 21.1746 141.622 21.2727 141.265 21.4433C140.908 21.6139 140.588 21.8536 140.324 22.1486C140.06 22.4435 139.857 22.7879 139.727 23.1617C139.39 22.6893 138.941 22.3073 138.421 22.0498C137.901 21.7922 137.325 21.667 136.745 21.6853C135.998 21.8097 135.331 22.2245 134.889 22.8392C134.829 22.9129 134.776 22.9921 134.731 23.0757C134.437 22.4176 133.962 21.8562 133.362 21.456C132.816 21.2233 132.219 21.1303 131.628 21.1853C131.036 21.2404 130.467 21.4418 129.972 21.7713C128.811 22.6457 129.034 24.4303 129.12 25.6845C129.177 26.5876 129.191 27.505 129.32 28.4008C129.48 29.1083 129.583 29.8272 129.628 30.551C129.605 30.5446 129.58 30.5446 129.557 30.551C127.493 31.6475 126.554 28.537 125.558 27.2613C124.124 25.4552 122.361 23.9716 121.257 21.929C120.612 20.7321 119.824 18.8758 118.347 18.5103C117.029 18.1806 116.126 19.1912 116.147 20.4382C116.285 21.83 116.712 23.1775 117.401 24.3945C118.421 26.7034 119.602 28.9378 120.935 31.0813C122.433 33.3318 124.518 35.4174 125.414 38.0262C125.768 39.2508 126.022 40.5019 126.174 41.7674C126.403 43.2008 126.719 44.5769 126.948 45.9888C127.421 48.9129 127.478 51.7726 128.847 54.4817C129.409 55.6312 130.32 56.5742 131.449 57.1766C131.318 58.3668 131.304 59.567 131.406 60.7601C131.456 61.6201 131.47 62.4873 131.485 63.3546C131.485 64.6805 131.262 66.1067 131.764 67.3681C131.778 67.4077 131.803 67.4422 131.837 67.4665C131.871 67.4909 131.912 67.504 131.954 67.504C131.996 67.504 132.037 67.4909 132.071 67.4665C132.105 67.4422 132.131 67.4077 132.144 67.3681C132.703 65.3112 132.488 62.903 132.381 60.7888C132.323 59.6635 132.273 58.5598 132.166 57.4417C132.674 57.5461 133.203 57.4884 133.678 57.2769C134.015 57.1264 133.771 56.6104 133.427 56.6892C132.395 56.9401 131.062 56.2018 130.402 55.4493C129.711 54.5606 129.2 53.5454 128.897 52.4606C128.095 50.0812 128.073 47.544 127.614 45.1001C127.371 43.81 127.034 42.5414 126.783 41.2585C126.602 40.0222 126.341 38.7988 126.002 37.5962C125.285 35.3959 123.759 33.7116 122.418 31.8625C120.95 29.7394 119.669 27.4924 118.591 25.147C117.919 23.9217 117.397 22.6198 117.036 21.2696C116.921 20.7321 116.749 19.7932 117.33 19.442C118.161 18.926 119.021 19.9509 119.48 20.5386C120.404 21.8287 120.978 23.2692 122.038 24.4805C122.942 25.5125 123.952 26.4657 124.834 27.5193C125.414 28.2861 125.95 29.0854 126.439 29.9131C127.285 31.2175 128.467 32.0632 129.872 30.9595C129.891 30.9421 129.906 30.921 129.916 30.8975C129.926 30.8741 129.931 30.8488 129.931 30.8233C129.931 30.7978 129.926 30.7725 129.916 30.7491C129.906 30.7256 129.891 30.7046 129.872 30.6871C130.338 30.1424 130.087 29.2537 129.987 28.6087C129.776 27.1541 129.688 25.6846 129.722 24.2153C129.695 23.8591 129.745 23.5012 129.868 23.166C129.992 22.8309 130.186 22.5263 130.438 22.273C130.728 21.9759 131.095 21.7655 131.497 21.6654C131.9 21.5654 132.322 21.5797 132.717 21.7068C133.972 22.1655 133.878 23.4269 134.416 24.3658C134.443 24.8002 134.528 25.2291 134.667 25.6415C134.975 26.6234 135.226 27.6196 135.584 28.58C135.72 28.924 135.835 29.2967 135.978 29.6981C136.11 30.2242 136.268 30.7432 136.451 31.2533C136.573 31.6189 136.695 31.97 136.824 32.3499L136.695 32.3069C136.415 32.227 136.119 32.2172 135.834 32.2784C135.549 32.3397 135.284 32.47 135.061 32.6581C134.764 32.9429 134.557 33.3084 134.465 33.7096C134.373 34.1108 134.401 34.5301 134.545 34.9157C134.013 34.2517 133.556 33.5306 133.183 32.7656C131.943 30.4865 131.571 27.8275 130.316 25.5985C130.23 25.4337 129.994 25.5985 130.073 25.7419C130.452 26.5863 130.733 27.4712 130.911 28.3793C131.141 29.2967 131.47 30.2069 131.779 31.0957C132.197 32.3878 132.775 33.6228 133.499 34.7724C134.072 35.6324 134.875 36.6358 135.957 36.8078C136.817 36.9368 138.25 36.4566 138.458 35.5034C139.175 36.3849 140.078 37.073 141.325 36.7361C142.758 36.3563 143.325 34.9945 143.303 33.6328C143.796 34.1032 144.408 34.4303 145.073 34.5788C142.672 35.6396 140.773 38.1122 139.591 40.3125C138.892 41.6084 138.334 42.9756 137.928 44.3905C137.476 45.9243 136.874 47.8092 137.132 49.4075C137.132 49.4935 137.29 49.4935 137.311 49.4075C137.663 47.8594 137.785 46.2898 138.229 44.7561C138.642 43.3207 139.205 41.9324 139.906 40.6135C140.572 39.3356 141.409 38.1542 142.393 37.1016C143.386 36.1419 144.49 35.3046 145.683 34.6075C146.043 34.6124 146.397 34.5182 146.707 34.3352C147.249 33.9744 147.637 33.4252 147.797 32.7942C147.933 33.8908 147.998 34.9945 148.234 36.0768C148.435 37.0013 148.729 38.2269 149.71 38.6354C151.259 39.2733 153.007 37.6535 154.104 36.7648C155.201 35.8715 156.244 34.9142 157.229 33.898C158.15 32.8447 159.173 31.8845 160.282 31.0311C161.421 30.2643 163.099 29.5046 164.174 30.8376C165.012 31.8625 163.837 32.9376 163.242 33.6686C162.785 34.2337 162.375 34.8354 162.016 35.4676C161.286 36.558 160.432 37.5608 159.472 38.4562C158.682 39.0696 157.984 39.7938 157.401 40.6063C156.749 41.5309 156.089 42.4626 155.415 43.38C153.402 46.1393 151.423 48.9201 149.359 51.6436C148.929 52.2241 148.485 52.7903 148.069 53.3852C147.539 54.1592 147.051 55.177 146.177 55.5927C145.471 55.8095 144.753 55.9866 144.027 56.123C143.98 56.1291 143.935 56.1444 143.893 56.1681C143.852 56.1918 143.816 56.2233 143.787 56.2609C143.758 56.2985 143.737 56.3414 143.725 56.3873C143.712 56.4331 143.709 56.4809 143.715 56.5279C143.721 56.575 143.737 56.6204 143.76 56.6615C143.784 56.7027 143.816 56.7387 143.853 56.7677C143.891 56.7966 143.934 56.8179 143.979 56.8303C144.025 56.8426 144.073 56.8458 144.12 56.8397C145.143 56.9179 146.159 56.6281 146.987 56.0227C146.908 57.7428 146.758 59.4557 146.736 61.1829C146.711 61.9982 146.733 62.8142 146.801 63.6269C146.915 64.7808 146.801 66.4937 147.517 67.4613C147.545 67.5044 147.585 67.5387 147.632 67.5602C147.679 67.5817 147.73 67.5895 147.781 67.5828C147.832 67.576 147.88 67.555 147.92 67.522C147.959 67.4891 147.989 67.4457 148.005 67.3968C148.385 66.1712 147.933 64.7306 147.754 63.4979C147.674 62.6931 147.647 61.8838 147.675 61.0754C147.738 59.276 147.705 57.4745 147.575 55.6787C147.569 55.6176 147.544 55.5599 147.503 55.5138C148.22 54.6824 148.707 53.6074 149.331 52.7545C150.133 51.6651 150.886 50.5399 151.71 49.4648C153.76 46.7843 155.81 44.0967 157.759 41.3445C158.271 40.6188 158.826 39.9247 159.422 39.2661C160.492 38.1683 161.453 36.968 162.289 35.6826C163.235 34.6648 164.439 33.6686 164.998 32.3714C165.428 31.3035 164.776 30.2571 163.844 29.6981ZM136.674 35.9047C136.394 35.944 136.109 35.9214 135.839 35.8384C135.569 35.7555 135.321 35.6142 135.111 35.4246C134.896 35.0509 134.795 34.6224 134.82 34.1919C134.846 33.7614 134.997 33.3477 135.255 33.0021C135.423 32.8364 135.632 32.7175 135.861 32.6572C136.09 32.5969 136.33 32.5972 136.559 32.6581C136.756 32.7135 136.938 32.8141 137.089 32.9519C137.286 33.4498 137.526 33.9294 137.806 34.3853C137.906 34.5573 138.021 34.7365 138.136 34.9085C137.591 35.2382 137.326 35.7757 136.674 35.9047ZM137.727 32.6007C137.476 31.9629 137.225 31.325 136.967 30.6871C136.984 30.6673 136.996 30.6444 137.003 30.6198C137.011 30.5952 137.013 30.5693 137.01 30.5438C136.889 29.3899 136.165 28.2432 135.828 27.1251C135.517 26.2898 135.261 25.4351 135.061 24.5665C135.057 24.5188 135.057 24.4709 135.061 24.4231C135.068 24.3181 135.068 24.2128 135.061 24.1078C135.077 23.8314 135.151 23.5614 135.279 23.3159C135.407 23.0704 135.586 22.8548 135.803 22.6834C136.021 22.512 136.272 22.3887 136.541 22.3217C136.809 22.2546 137.089 22.2454 137.362 22.2945C138.852 22.6314 139.906 24.2726 140.372 25.62C140.757 27.0079 141.236 28.368 141.805 29.6909C142.013 30.6441 142.242 31.5902 142.522 32.5577C142.666 33.0481 142.724 33.5597 142.694 34.07C142.518 33.8685 142.312 33.6946 142.085 33.554C141.853 33.4162 141.595 33.3285 141.327 33.2964C141.059 33.2643 140.787 33.2886 140.529 33.3676C140.311 33.4216 140.106 33.521 139.927 33.6591C139.749 33.7973 139.602 33.9713 139.496 34.1698C139.389 34.3684 139.325 34.5871 139.308 34.8118C139.291 35.0366 139.321 35.2624 139.397 35.4747C138.656 34.6415 138.097 33.6626 137.756 32.6007H137.727ZM140.744 36.0553C140.336 36.0595 139.938 35.9284 139.612 35.6826C139.618 35.6704 139.622 35.6569 139.622 35.6432C139.622 35.6294 139.618 35.6159 139.612 35.6037C139.497 34.7007 139.727 33.8836 140.737 33.6901C140.977 33.6484 141.222 33.6643 141.454 33.7366C141.686 33.8089 141.897 33.9355 142.07 34.1058C142.242 34.2707 142.357 34.4713 142.515 34.6218C142.44 35.0329 142.22 35.4034 141.895 35.6663C141.57 35.9292 141.162 36.0672 140.744 36.0553ZM143.102 32.1062C143.105 32.0919 143.105 32.0775 143.102 32.0632C142.938 31.4468 142.723 30.8376 142.572 30.2213C142.515 29.9919 142.486 29.7483 142.443 29.5046C142.42 29.3573 142.389 29.2114 142.35 29.0674C142.321 28.9766 142.293 28.8906 142.264 28.8094V28.7735C142.092 28.2862 141.834 27.8131 141.669 27.3401C141.394 26.2924 141.023 25.2726 140.558 24.2941C140.433 24.0664 140.294 23.8463 140.142 23.6348C140.379 22.9181 140.479 22.2013 141.246 21.886C141.696 21.7447 142.172 21.7029 142.639 21.7635C143.107 21.8241 143.556 21.9858 143.955 22.2372C145.84 23.3337 146.435 25.6774 146.93 27.6555C147.349 29.156 147.466 30.7249 147.274 32.2711C147.105 31.9224 146.86 31.6162 146.557 31.3752C146.318 31.1806 146.036 31.0448 145.735 30.9789C145.434 30.9129 145.121 30.9185 144.823 30.9953C144.436 31.1631 144.129 31.4738 143.966 31.8624C143.803 32.2511 143.797 32.6876 143.948 33.0809C143.602 32.8175 143.314 32.4857 143.102 32.1062ZM144.156 33.3103C144.041 32.5936 144.206 31.583 144.923 31.3823C145.196 31.3291 145.478 31.3474 145.741 31.4353C146.005 31.5232 146.242 31.6778 146.428 31.884C146.722 32.1779 146.815 32.6007 147.073 32.9017C147.03 33.0164 146.987 33.1383 146.937 33.2529C146.421 34.4713 145.116 34.0557 144.156 33.3103Z" fill="#232324" stroke="#232324" stroke-width="0.872324"/>
<path d="M217.916 40.4743C217.823 39.005 216.841 37.7938 216.146 36.561C215.859 36.0593 215.579 35.5577 215.307 35.0488C215.329 35.0189 215.343 34.9847 215.35 34.9485C215.78 32.8342 215.35 30.5049 215.293 28.3619C215.293 26.649 215.157 24.6207 213.953 23.2733C213.469 22.7775 212.876 22.4019 212.222 22.1766C211.567 21.9513 210.869 21.8826 210.183 21.9761C209.272 22.0836 207.896 22.5996 207.502 23.5528C207.346 23.3875 207.176 23.2364 206.993 23.1013C204.987 21.6679 202.019 22.1624 201.202 24.5777C200.814 24.3945 200.384 24.3155 199.955 24.3484C198.479 24.4487 197.311 25.5381 196.508 26.692C195.491 28.1296 194.846 29.7965 194.63 31.5441C194.627 31.5607 194.627 31.5777 194.63 31.5943C194.315 31.7735 194.021 31.967 193.741 32.1318C192.431 32.911 191.179 33.7828 189.993 34.7406L189.929 34.7836L189.778 34.9055C189.74 34.9387 189.714 34.9844 189.706 35.0345C189.109 35.9351 188.765 36.9797 188.71 38.059C188.542 39.4668 188.506 40.8873 188.603 42.3019C188.717 43.8499 189.047 45.355 189.284 46.8888C189.47 48.1287 189.685 49.3686 189.943 50.6013C190.437 52.9306 191.211 55.3459 192.81 57.1735C193.143 57.5495 193.518 57.8861 193.928 58.1769C193.8 59.2518 193.769 60.3359 193.835 61.4164C193.835 62.2764 193.885 63.1293 193.878 63.9822C193.878 65.1074 193.727 66.1896 194.179 67.2432C194.25 67.408 194.501 67.3435 194.544 67.193C195.075 65.3941 194.867 63.287 194.816 61.4164C194.816 60.499 194.781 59.5816 194.723 58.6642C195.3 59.0146 195.95 59.2278 196.622 59.2875C197.294 59.3471 197.971 59.2516 198.601 59.0083C198.629 58.9909 198.652 58.9667 198.668 58.9378C198.684 58.909 198.693 58.8765 198.693 58.8434C198.693 58.8104 198.684 58.7778 198.668 58.749C198.652 58.7201 198.629 58.6959 198.601 58.6786C197.733 58.2485 196.709 58.3847 195.784 58.1052C194.748 57.7504 193.846 57.0877 193.197 56.2059C191.72 54.3855 191.111 52.0705 190.66 49.8201C190.136 47.3953 189.75 44.9426 189.506 42.4739C189.402 41.2098 189.402 39.9394 189.506 38.6753C189.631 37.4498 189.912 36.2455 190.344 35.0918C192.33 33.8949 194.114 32.1461 196.429 31.6014C198.744 31.0567 200.457 34.97 200.865 36.6184C201.142 37.7876 201.032 39.0151 200.55 40.1159C199.891 41.5493 198.099 41.6855 197.59 40.0801C197.341 39.2383 196.94 38.449 196.408 37.7508C195.734 36.8477 195.239 35.787 194.551 34.927C194.336 34.6546 193.992 34.927 194.035 35.2208C194.248 36.0794 194.677 36.8691 195.282 37.5143C194.784 37.4353 194.276 37.4353 193.777 37.5143C192.852 37.4674 191.948 37.223 191.125 36.7976C191.1 36.7833 191.07 36.7798 191.041 36.7879C191.013 36.796 190.989 36.8149 190.975 36.8406C190.961 36.8662 190.957 36.8965 190.965 36.9247C190.973 36.9529 190.992 36.9768 191.018 36.9911C192.356 37.8162 193.948 38.1246 195.497 37.8583H195.548C195.878 38.253 196.177 38.6723 196.443 39.1125C196.513 39.2317 196.573 39.3563 196.623 39.4852C194.988 39.4889 193.378 39.8846 191.928 40.6391C191.91 40.6467 191.896 40.6612 191.888 40.6793C191.881 40.6975 191.881 40.7178 191.889 40.7359C191.896 40.7539 191.911 40.7682 191.929 40.7756C191.947 40.783 191.967 40.7829 191.985 40.7753C192.824 40.5603 193.641 40.2736 194.494 40.1087C195.211 39.9654 195.985 39.8937 196.73 39.7647C197.01 40.6033 197.131 41.4418 198.128 41.8002C198.578 41.9781 199.074 42.0044 199.541 41.875C200.008 41.7457 200.42 41.4678 200.715 41.0835C200.862 40.8584 200.985 40.6181 201.08 40.3668C201.366 40.5879 201.721 40.7006 202.082 40.6849C202.443 40.6691 202.786 40.5259 203.051 40.2807C203.385 39.919 203.631 39.4848 203.768 39.0122C204 38.5498 204.148 38.0499 204.205 37.5358L204.342 37.5931C204.385 37.954 204.513 38.2996 204.715 38.6021C204.916 38.9046 205.186 39.1556 205.503 39.3347C204.613 40.2894 203.872 41.3716 203.302 42.5455C202.27 44.6311 201.317 47.24 201.561 49.5908C201.565 49.6305 201.582 49.6678 201.609 49.6967C201.637 49.7256 201.674 49.7444 201.713 49.7501C201.753 49.7559 201.793 49.7483 201.828 49.7285C201.862 49.7087 201.89 49.6779 201.905 49.6409C202.672 47.4908 202.93 45.1758 203.904 43.0472C204.763 41.0485 206.142 39.3162 207.896 38.0303L208.183 37.9873C208.262 38.5654 208.414 39.1312 208.635 39.6716C208.778 40.0872 208.885 40.6678 209.351 40.8254C209.402 40.837 209.454 40.8295 209.499 40.8044C209.544 40.7792 209.578 40.7382 209.595 40.6893C209.76 40.2664 209.387 39.7074 209.237 39.306C209.095 38.8009 208.883 38.3183 208.606 37.8726H208.685C209.487 37.6361 210.613 37.2491 210.935 36.4392C210.945 36.4039 210.947 36.3667 210.94 36.3306C210.933 36.2946 210.918 36.2606 210.896 36.2314C210.874 36.2022 210.845 36.1785 210.812 36.1624C210.779 36.1462 210.743 36.1379 210.706 36.1382C209.953 36.1024 209.272 36.7474 208.556 36.9767C207.668 37.2448 206.727 37.2891 205.818 37.1057C204.184 36.8047 202.342 35.9303 201.826 34.2389C202.371 34.6442 203.023 34.8817 203.702 34.9224C204.38 34.9631 205.056 34.8053 205.646 34.4683C206.312 34.0956 207.302 32.4543 206.542 31.795C207.877 31.5383 209.163 31.074 210.355 30.4189C211.738 30.254 212.44 31.1356 213.064 32.268C213.609 33.2714 214.039 34.3464 214.555 35.3713C214.956 36.1669 215.386 36.9481 215.845 37.7078C216.317 38.3796 216.68 39.1223 216.92 39.9081C217.285 41.492 216.375 43.2264 215.751 44.6312C214.555 47.3331 213.773 50.1856 212.555 52.8876C212.146 53.8815 211.627 54.8264 211.007 55.7042C210.623 56.2299 210.135 56.6714 209.573 57.0015C208.993 57.2573 208.397 57.4774 207.789 57.6608C207.732 57.6773 207.682 57.7117 207.647 57.7588C207.611 57.806 207.592 57.8634 207.592 57.9224C207.592 57.9815 207.611 58.0389 207.647 58.0861C207.682 58.1332 207.732 58.1676 207.789 58.1841C208.341 58.3434 208.932 58.3054 209.459 58.0765C209.358 59.5099 209.215 60.886 209.251 62.3051C209.251 63.0863 209.43 63.846 209.487 64.6272C209.552 65.5231 209.487 66.5337 210.054 67.2647C210.19 67.4367 210.441 67.3149 210.498 67.15C211.057 65.6306 210.211 63.6597 210.161 62.0758C210.161 60.6423 210.211 59.2089 210.046 57.7755C211.044 57.0981 211.881 56.21 212.498 55.1739C213.723 53.0415 214.67 50.7604 215.314 48.3867C215.784 46.9239 216.334 45.4883 216.963 44.0864C217.548 42.9696 217.874 41.7348 217.916 40.4743ZM206.943 38.231C206.617 38.452 206.303 38.6913 206.004 38.9477C205.746 38.7719 205.505 38.5702 205.288 38.3456C205.179 38.2156 205.09 38.0708 205.022 37.9156L205.581 38.0518C206.03 38.1416 206.486 38.1944 206.943 38.2095V38.231ZM203.79 37.4784C203.446 37.93 203.496 38.747 203.245 39.2487C203.183 39.4336 203.077 39.6008 202.936 39.736C202.796 39.8713 202.625 39.9706 202.438 40.0254C202.25 40.0803 202.053 40.0892 201.861 40.0513C201.67 40.0134 201.491 39.9298 201.339 39.8077L201.468 39.478C201.725 38.8221 201.828 38.1159 201.769 37.4139C201.59 35.9202 201.013 34.5019 200.099 33.3072C199.446 32.354 198.543 31.1571 197.354 30.8776C196.564 30.753 195.757 30.9131 195.075 31.3291C195.741 30.3544 195.985 29.093 196.508 28.0466C197.139 26.8067 198.078 25.488 199.497 25.1153C201.231 24.6566 201.933 26.176 202.363 27.5521C202.562 28.2353 202.723 28.9292 202.844 29.6305C202.901 29.9817 202.951 30.3472 203.016 30.6912C203.071 31.0113 203.17 31.3223 203.309 31.6158C201.726 31.967 200.55 32.9273 201.195 34.7478C201.425 35.3493 201.774 35.8988 202.219 36.3641C202.665 36.8293 203.199 37.2008 203.79 37.4569V37.4784ZM206.183 32.0386C206.337 32.2549 206.423 32.5115 206.432 32.7765C206.441 33.0415 206.372 33.3033 206.234 33.5294C206.078 33.8163 205.858 34.0629 205.591 34.2496C205.323 34.4362 205.016 34.5577 204.693 34.6044C204.187 34.7592 203.649 34.7798 203.133 34.6642C202.616 34.5487 202.139 34.3008 201.747 33.9451C201.597 32.8198 202.535 32.3898 203.61 32.2106C203.662 32.2276 203.717 32.2276 203.768 32.2106C204.535 32.096 205.352 32.096 205.882 32.0458H206.148L206.183 32.0386ZM203.811 31.5513C203.801 31.2683 203.778 30.9861 203.739 30.7056C203.646 30.1752 203.575 29.6377 203.474 29.1073C203.312 28.2349 203.072 27.3787 202.758 26.5487C202.527 25.871 202.112 25.2706 201.561 24.8142C202.17 23.6317 203.066 22.7071 204.557 22.9436C205.124 23.0103 205.669 23.2017 206.154 23.504C206.638 23.8064 207.05 24.2122 207.359 24.6924C207.819 25.5214 208.125 26.4272 208.262 27.3657C208.409 28.041 208.508 28.726 208.556 29.4155C208.504 29.8421 208.566 30.2748 208.735 30.6697C208.129 30.9259 207.5 31.125 206.857 31.2646C205.868 31.4509 204.829 31.3864 203.811 31.5298V31.5513ZM210.606 29.996C210.573 29.9856 210.538 29.9856 210.505 29.996C210.132 30.1179 209.788 30.2612 209.401 30.4045C209.358 29.9602 209.452 29.5015 209.401 29.05C209.351 28.5984 209.294 28.2544 209.222 27.8674C209.109 27.1693 208.949 26.4797 208.742 25.8033C208.543 25.1758 208.256 24.5798 207.889 24.033C208.184 23.6239 208.551 23.2717 208.971 22.9938C209.589 22.6903 210.283 22.5803 210.964 22.6785C211.658 22.7374 212.319 22.9972 212.868 23.4261C213.417 23.8551 213.828 24.4346 214.053 25.0938C214.562 26.5773 214.461 28.2401 214.461 29.7882C214.461 30.6267 214.512 31.4653 214.54 32.3038C214.54 32.741 214.54 33.1854 214.54 33.6297L214.225 33.0134C213.666 31.8738 212.218 29.2076 210.606 29.9745V29.996Z" fill="#232324" stroke="#232324" stroke-width="0.872324"/>
</svg>
